<mxfile host="app.diagrams.net" modified="2023-06-04T20:11:40.627Z" agent="Mozilla/5.0 (Windows NT 10.0; Win64; x64) AppleWebKit/537.36 (KHTML, like Gecko) Chrome/114.0.0.0 Safari/537.36" etag="vui2W4hsXbRv-nNxFSpO" version="21.3.7" type="device">
  <diagram name="Page-1" id="dCG4jSozLzUN2q36QTq_">
    <mxGraphModel dx="1105" dy="578" grid="1" gridSize="10" guides="1" tooltips="1" connect="1" arrows="1" fold="1" page="1" pageScale="1" pageWidth="850" pageHeight="1100" math="0" shadow="0">
      <root>
        <mxCell id="0" />
        <mxCell id="1" parent="0" />
        <mxCell id="oUodb0x-3jrVBn7_nDyM-1" value="GitHub Repository for&amp;nbsp;&lt;br&gt;code storage" style="dashed=0;outlineConnect=0;html=1;align=center;labelPosition=center;verticalLabelPosition=bottom;verticalAlign=top;shape=mxgraph.weblogos.github" vertex="1" parent="1">
          <mxGeometry x="190" y="240" width="50" height="50" as="geometry" />
        </mxCell>
        <mxCell id="oUodb0x-3jrVBn7_nDyM-12" style="edgeStyle=orthogonalEdgeStyle;rounded=0;orthogonalLoop=1;jettySize=auto;html=1;" edge="1" parent="1" source="oUodb0x-3jrVBn7_nDyM-2">
          <mxGeometry relative="1" as="geometry">
            <mxPoint x="345.6249999999998" y="470" as="targetPoint" />
          </mxGeometry>
        </mxCell>
        <mxCell id="oUodb0x-3jrVBn7_nDyM-2" value="DockerHub for Container Storage&amp;nbsp;" style="image;sketch=0;aspect=fixed;html=1;points=[];align=center;fontSize=12;image=img/lib/mscae/Docker.svg;" vertex="1" parent="1">
          <mxGeometry x="317.27000000000004" y="330" width="56.71" height="46.5" as="geometry" />
        </mxCell>
        <mxCell id="oUodb0x-3jrVBn7_nDyM-10" style="edgeStyle=orthogonalEdgeStyle;rounded=0;orthogonalLoop=1;jettySize=auto;html=1;" edge="1" parent="1" source="oUodb0x-3jrVBn7_nDyM-3">
          <mxGeometry relative="1" as="geometry">
            <mxPoint x="345.625" y="310" as="targetPoint" />
          </mxGeometry>
        </mxCell>
        <mxCell id="oUodb0x-3jrVBn7_nDyM-13" style="edgeStyle=orthogonalEdgeStyle;rounded=0;orthogonalLoop=1;jettySize=auto;html=1;" edge="1" parent="1" source="oUodb0x-3jrVBn7_nDyM-3" target="oUodb0x-3jrVBn7_nDyM-1">
          <mxGeometry relative="1" as="geometry" />
        </mxCell>
        <mxCell id="oUodb0x-3jrVBn7_nDyM-3" value="Container Image Creation Using DockerFile" style="shape=image;html=1;verticalAlign=top;verticalLabelPosition=bottom;labelBackgroundColor=#ffffff;imageAspect=0;aspect=fixed;image=https://cdn0.iconfinder.com/data/icons/social-media-2104/24/social_media_social_media_logo_docker-128.png" vertex="1" parent="1">
          <mxGeometry x="380" y="160" width="63.75" height="63.75" as="geometry" />
        </mxCell>
        <mxCell id="oUodb0x-3jrVBn7_nDyM-4" value="Kubernetes Minikube for deployment and service" style="sketch=0;html=1;dashed=0;whitespace=wrap;fillColor=#2875E2;strokeColor=#ffffff;points=[[0.005,0.63,0],[0.1,0.2,0],[0.9,0.2,0],[0.5,0,0],[0.995,0.63,0],[0.72,0.99,0],[0.5,1,0],[0.28,0.99,0]];verticalLabelPosition=bottom;align=center;verticalAlign=top;shape=mxgraph.kubernetes.icon;prIcon=ep" vertex="1" parent="1">
          <mxGeometry x="320" y="480" width="47.5" height="48" as="geometry" />
        </mxCell>
        <mxCell id="oUodb0x-3jrVBn7_nDyM-9" style="edgeStyle=orthogonalEdgeStyle;rounded=0;orthogonalLoop=1;jettySize=auto;html=1;entryX=0.377;entryY=-0.104;entryDx=0;entryDy=0;entryPerimeter=0;" edge="1" parent="1" source="oUodb0x-3jrVBn7_nDyM-5" target="oUodb0x-3jrVBn7_nDyM-3">
          <mxGeometry relative="1" as="geometry">
            <mxPoint x="343.75" y="160.0000000000001" as="targetPoint" />
          </mxGeometry>
        </mxCell>
        <mxCell id="oUodb0x-3jrVBn7_nDyM-5" value="Machine Learning Python Code" style="verticalLabelPosition=bottom;html=1;verticalAlign=top;align=center;strokeColor=none;fillColor=#00BEF2;shape=mxgraph.azure.code_file;pointerEvents=1;" vertex="1" parent="1">
          <mxGeometry x="530" y="40" width="47.5" height="50" as="geometry" />
        </mxCell>
      </root>
    </mxGraphModel>
  </diagram>
</mxfile>
